<svg width="24" height="23" viewBox="0 0 24 23" fill="none" xmlns="http://www.w3.org/2000/svg">
<path fill-rule="evenodd" clip-rule="evenodd" d="M15.5792 12.2404C16.0287 12.756 16.51 13.2396 17.0296 13.685C17.2008 13.9328 17.4162 14.136 17.6611 14.309C18.1079 14.8313 18.5958 15.3124 19.1179 15.759C19.2886 16.0035 19.495 16.2122 19.7417 16.3803C20.1563 16.8676 20.615 17.3109 21.0964 17.7314C21.3084 18.0019 21.5394 18.2532 21.8221 18.4528C22.0593 18.7013 22.2925 18.9539 22.5348 19.1975C23.4628 20.1314 23.5247 21.4536 22.6791 22.3552C21.8962 23.1899 20.3198 23.2199 19.4248 22.412C19.119 22.1358 18.8247 21.8468 18.525 21.5636C18.3856 21.3456 18.1984 21.176 17.9874 21.0303C17.548 20.5108 17.0648 20.0352 16.5504 19.5907C16.3767 19.337 16.1587 19.1278 15.9091 18.9503C15.4667 18.4344 14.989 17.9539 14.4717 17.5129C14.2917 17.2653 14.0847 17.0447 13.8318 16.8699C13.3872 16.3568 12.9084 15.8778 12.3942 15.4346C12.2091 15.1918 12.009 14.964 11.754 14.7908C11.495 14.4653 11.3971 14.827 11.2947 14.9283C9.53627 16.6687 7.79001 18.4212 6.04057 20.1708C5.31882 20.8926 4.59924 21.6167 3.87309 22.334C3.02736 23.1693 1.39341 23.2139 0.608258 22.4297C-0.259708 21.5628 -0.190708 20.1793 0.763712 19.2262C3.23668 16.7567 5.70947 14.2869 8.17516 11.8101C8.27723 11.7076 8.57008 11.6322 8.34361 11.3818C8.17061 11.1268 7.94291 10.9266 7.70133 10.7403C7.25637 10.2279 6.77875 9.74831 6.26656 9.30326C6.12326 9.08834 5.94316 8.9108 5.72653 8.77015C5.2519 8.21583 4.73621 7.7025 4.18361 7.22599C4.04218 7.01017 3.86581 6.82914 3.64888 6.6884C3.20587 6.17365 2.72572 5.69604 2.21209 5.25191C2.02844 5.00757 1.82336 4.78456 1.57162 4.60768C1.29844 4.32154 1.02671 4.03389 0.751735 3.74937C-0.0941133 2.8744 -0.100583 1.52102 0.738345 0.664638C1.59494 -0.209828 2.97308 -0.222707 3.86033 0.633794C4.13287 0.896796 4.40879 1.15604 4.68313 1.41702C4.84894 1.66317 5.06457 1.85892 5.30302 2.03183C5.7726 2.55864 6.27225 3.05513 6.80171 3.52179C6.98476 3.77528 7.20735 3.98875 7.45922 4.17249C7.91438 4.68664 8.39558 5.17461 8.92035 5.61831C8.98246 5.74608 9.07135 5.84674 9.20658 5.90021C9.80333 6.56623 10.4287 7.20327 11.1084 7.7854C11.1335 7.88482 11.1973 7.94645 11.2941 7.97594C11.4989 8.37805 11.6933 8.31567 11.9839 8.02252C14.356 5.6302 16.7397 3.24925 19.1263 0.871008C20.5312 -0.529041 22.3207 -0.133124 23.0196 1.72263C22.9869 1.80596 23.0089 1.87685 23.0685 1.93926C23.0714 2.11341 23.0742 2.2874 23.077 2.46154C23.0186 2.56015 22.9873 2.66426 23.0139 2.77973C22.8739 3.23483 22.6147 3.60427 22.275 3.94196C19.8763 6.32505 17.4867 8.71716 15.1059 11.1179C14.9979 11.2268 14.6095 11.3242 14.9425 11.6108C15.114 11.8619 15.3383 12.0596 15.5792 12.2404Z" fill="#F48421"/>
</svg>
